<?xml version="1.0" encoding="UTF-8" standalone="no"?>
<!DOCTYPE svg PUBLIC "-//W3C//DTD SVG 1.1//EN" "http://www.w3.org/Graphics/SVG/1.1/DTD/svg11.dtd">
<svg width="100%" height="100%" viewBox="0 0 231 231" version="1.1" xmlns="http://www.w3.org/2000/svg" xmlns:xlink="http://www.w3.org/1999/xlink" xml:space="preserve" xmlns:serif="http://www.serif.com/" style="fill-rule:evenodd;clip-rule:evenodd;stroke-linejoin:round;stroke-miterlimit:2;">
    <g id="Artboard1" transform="matrix(1,0,0,1.38891,2.27374e-13,164.333)">
        <rect x="-0" y="-118.318" width="231" height="166.318" style="fill:none;"/>
        <clipPath id="_clip1">
            <rect x="-0" y="-118.318" width="231" height="166.318"/>
        </clipPath>
        <g clip-path="url(#_clip1)">
            <g transform="matrix(0.195255,0,0,0.140582,-737.781,-664.952)">
                <path d="M4186.81,4355.95L4186.48,4355.93C4186.12,4355.91 4185.76,4355.9 4185.39,4355.89C4176.64,4355.61 4167.6,4355.31 4158.37,4356.19C4153.85,4356.59 4149.17,4356.71 4144.49,4357.45C4140.84,4358 4137.07,4358.6 4133.24,4359.19C4132.53,4359.3 4131.83,4359.42 4131.12,4359.57C4111.61,4363.53 4091.18,4369.62 4071.82,4380.57C4067.37,4383.06 4063.07,4386.17 4058.59,4389.04L4056.44,4390.52C4055.03,4391.5 4052.43,4393.35 4050.79,4394.75C4050.93,4394.64 4048.46,4396.74 4048.46,4396.74C4047.69,4397.39 4046.94,4398.07 4046.22,4398.77C4043.22,4401.68 4040.01,4404.98 4037.35,4408.37C4032.57,4414.33 4028.46,4421.2 4025.44,4428.67C4009.57,4407.04 3991.38,4401.23 3991.38,4401.23C3975.12,4394.8 3956.61,4398.17 3943.67,4409.93C3931.02,4421.43 3925.85,4438.98 3930.19,4455.45C3933.61,4473.16 3939.85,4494.17 3929.28,4510.65C3923.95,4518.92 3915.77,4526.76 3907.68,4532.37C3907.67,4532.38 3907.65,4532.39 3907.63,4532.4C3897.49,4539.45 3886.11,4546.25 3880.43,4553.02C3869.29,4566.31 3865.38,4581.18 3868.75,4597.83C3870.46,4606.27 3874.44,4616.51 3884.77,4627.21C3884.77,4627.21 3884.77,4627.21 3884.78,4627.22C3891.56,4634.24 3897.97,4640.48 3904.06,4646.03C3894.71,4648.76 3886.2,4652.2 3878.47,4656.23C3863.28,4664.14 3851.55,4674.35 3842.78,4686.33C3842.77,4686.35 3842.75,4686.38 3842.74,4686.4C3832.35,4700.66 3826.71,4717.46 3826.71,4736.94C3826.71,4745.65 3828.14,4753.92 3830.81,4761.58C3833.92,4770.62 3838.57,4778.4 3844.63,4785.15C3844.65,4785.16 3844.66,4785.18 3844.67,4785.19C3850.95,4792.16 3858.52,4797.73 3867.52,4801.7C3874.98,4805.03 3883.26,4807.08 3892.4,4807.48L3892.4,4842.67C3892.4,4845.05 3892.49,4847.35 3892.68,4849.56C3870.06,4852.17 3847.59,4862.76 3832.04,4878.24C3832.04,4878.24 3832.03,4878.25 3832.03,4878.25C3827.89,4882.38 3823.97,4886.62 3820.05,4890.88C3817.61,4893.47 3815.18,4896.12 3812.63,4898.78C3810.75,4900.71 3808.68,4903.05 3806.55,4905.62C3789.99,4914.24 3778.55,4931.53 3778.55,4951.94C3778.55,4952.83 3778.57,4953.71 3778.61,4954.58C3778.57,4955.43 3778.55,4956.31 3778.55,4957.19C3778.55,4977.51 3790.03,4994.82 3806.52,5003.47C3808.73,5006.11 3810.79,5008.47 3812.68,5010.4C3815.18,5012.98 3817.57,5015.58 3819.94,5018.17C3823.9,5022.48 3827.82,5026.68 3832,5030.84C3850.04,5048.9 3877.34,5060.18 3903.43,5060.18L3903.98,5060.18C3915.51,5060.12 3926.26,5058.12 3936.03,5054.43L3936.52,5054.6C3947.01,5058.29 3958.15,5060.19 3969.61,5060.19L4770.53,5060.19L4771.07,5060.19C4782.33,5060.13 4793.45,5058.13 4803.97,5054.36C4813.93,5058.16 4824.91,5060.18 4836.72,5060.18L4837.34,5060.18C4863.25,5060 4890.26,5048.75 4908.15,5030.85C4912.26,5026.76 4916.16,5022.54 4920.05,5018.38C4920.13,5018.28 4920.22,5018.19 4920.31,5018.1C4922.67,5015.52 4925.04,5012.94 4927.53,5010.36C4929.42,5008.41 4931.47,5006.07 4933.62,5003.49C4950.14,4994.85 4961.61,4977.52 4961.61,4957.19C4961.61,4956.31 4961.59,4955.43 4961.55,4954.57C4961.59,4953.72 4961.61,4952.83 4961.61,4951.94L4961.55,4949.26C4960.6,4930.02 4949.45,4913.85 4933.6,4905.61C4931.46,4903.03 4929.41,4900.71 4927.57,4898.82C4925.07,4896.22 4922.69,4893.64 4920.31,4891.07C4916.31,4886.73 4912.34,4882.45 4908.11,4878.24C4906.29,4876.44 4904.38,4874.69 4902.39,4873.02C4903.46,4871.61 4904.44,4870.25 4905.34,4868.95C4918.22,4850.28 4915.46,4825.11 4899.14,4809.66L4899.14,4772.44C4899.14,4757.46 4895.61,4744.77 4889.78,4734.22C4883.96,4723.67 4876.14,4714.94 4866.37,4708.02C4866.3,4707.97 4866.22,4707.92 4866.15,4707.86C4857.65,4701.92 4847.92,4697.45 4836.87,4694.7C4828.07,4692.49 4818.76,4691.36 4809.01,4691.36C4800.91,4691.36 4792.81,4692.19 4784.71,4693.96C4775.1,4695.99 4766.47,4699.33 4758.76,4703.68C4757.99,4704.12 4757.23,4704.56 4756.48,4705.02C4753.56,4702.88 4750.52,4701.02 4747.38,4699.41C4747.26,4699.35 4747.15,4699.29 4747.03,4699.23C4740.49,4695.94 4733.41,4693.6 4725.77,4692.39C4725.67,4690.06 4725.46,4687.53 4725.14,4684.78C4725.12,4684.68 4725.11,4684.58 4725.1,4684.48C4724.86,4682.6 4724.54,4680.73 4724.13,4678.88C4726.39,4679.65 4728.53,4680.37 4730.51,4681.07C4754.49,4689.5 4785.76,4698.7 4854.81,4627.21C4854.82,4627.2 4854.82,4627.2 4854.83,4627.19C4865.16,4616.49 4869.13,4606.25 4870.83,4597.81C4874.19,4581.16 4870.28,4566.3 4859.15,4553.02C4853.47,4546.25 4842.09,4539.45 4831.96,4532.41L4831.89,4532.36C4823.81,4526.76 4815.62,4518.91 4810.31,4510.65C4799.75,4494.2 4805.94,4473.23 4809.37,4455.54C4810.4,4451.66 4810.9,4447.71 4810.9,4443.8C4811.69,4443.7 4812.41,4443.61 4813.06,4443.53C4813.31,4443.49 4813.56,4443.46 4813.81,4443.42C4816.29,4443.05 4817.61,4442.82 4817.61,4442.82C4828.48,4440.99 4837.83,4435.45 4844.55,4427.69C4859.69,4421 4870.59,4406.34 4871.76,4388.82C4871.76,4388.82 4872.02,4386.3 4871.79,4381.37L4871.8,4381.37L4871.78,4381.15L4871.78,4381.15C4871.54,4375.92 4870.5,4368.06 4866.51,4358.64C4861.59,4347 4850.23,4331.39 4830.67,4318.7C4830.64,4318.68 4830.62,4318.67 4830.59,4318.65C4823.53,4314.09 4815.35,4309.67 4805.91,4305.81C4805.85,4305.78 4805.78,4305.75 4805.71,4305.73C4802.88,4304.58 4800.13,4303.57 4796.8,4302.54C4796.56,4302.47 4796.33,4302.39 4796.09,4302.32C4793.7,4301.63 4791.47,4301.15 4789.09,4300.55C4784.03,4299.24 4778.74,4298.25 4773.26,4297.39C4773.15,4297.37 4773.05,4297.36 4772.94,4297.34C4753.88,4294.49 4732.16,4293.76 4708.71,4295.31C4708.66,4295.32 4708.61,4295.32 4708.55,4295.32C4686.76,4296.84 4663.26,4299.81 4638.8,4304.94C4615.14,4309.81 4589.68,4316.43 4565.05,4324.66C4556.64,4327.31 4548.14,4330.03 4539.57,4332.81C4536.17,4326.53 4532.85,4320.15 4529.61,4313.68C4478.26,4211.17 4446.37,4085.56 4422.88,3957.81C4415.79,3919.23 4402.78,3909.76 4391.74,3904.32C4385.43,3901.21 4378.5,3899.6 4371.47,3899.6L4368.1,3899.6C4361.06,3899.6 4354.11,3901.22 4347.8,3904.34C4336.79,3909.78 4323.79,3919.25 4316.7,3957.81C4316.69,3957.81 4316.69,3957.82 4316.69,3957.82C4289.86,4103.86 4252.27,4247.21 4186.81,4355.95ZM4469.18,4483.14C4468.02,4483.57 4467.06,4483.93 4466.35,4484.19C4466.34,4484.2 4466.34,4484.2 4466.33,4484.2C4454.73,4488.57 4443.07,4492.96 4431.41,4497.75C4431.22,4497.83 4431.03,4497.9 4430.84,4497.98C4418.83,4502.72 4406.83,4507.44 4394.85,4512.13C4382.96,4517.01 4371.09,4521.85 4359.31,4526.66C4347.22,4531.6 4335.24,4536.51 4323.28,4541.14C4317.35,4543.48 4295.19,4552.36 4289.77,4554.59C4289.74,4554.6 4289.71,4554.61 4289.68,4554.62C4277.28,4559.68 4264.88,4564.82 4252.18,4568.91C4238.15,4573.5 4223.84,4577.05 4209.55,4579.19C4209.26,4579.23 4208.97,4579.27 4208.68,4579.31C4204.79,4579.81 4200.61,4580.36 4197.19,4580.59L4193.06,4580.92C4192.28,4580.98 4191.49,4581.02 4190.71,4581.05C4190.71,4581.05 4186.47,4581.17 4186.47,4581.17C4186.19,4581.18 4185.92,4581.18 4185.64,4581.19C4151.05,4612.45 4118.3,4633.53 4089.86,4648.28C4093.44,4651.63 4096.4,4655.24 4098.82,4658.98C4098.9,4659.09 4098.97,4659.2 4099.04,4659.32C4104.05,4667.17 4107.02,4675.6 4108.15,4684.37C4108.2,4684.78 4108.25,4685.19 4108.29,4685.61C4108.54,4688.04 4108.72,4690.3 4108.81,4692.39C4116.5,4693.6 4123.6,4695.96 4130.15,4699.26C4130.26,4699.32 4130.38,4699.38 4130.49,4699.44C4132.39,4700.41 4134.24,4701.48 4136.05,4702.64C4143.21,4698.81 4151.28,4695.83 4160.1,4693.97C4168.18,4692.19 4176.26,4691.36 4184.37,4691.36C4191.53,4691.36 4198.43,4691.97 4205.09,4693.17L4205.13,4693.04C4207.45,4685.55 4211.18,4678.5 4216.12,4672.4C4218.36,4669.64 4220.85,4667.09 4223.53,4664.76C4226.21,4662.41 4229.07,4660.28 4232.1,4658.4C4238.09,4654.69 4244.74,4651.97 4251.6,4650.36C4260.92,4648.18 4270.78,4648.06 4280.16,4649.98C4287.82,4651.56 4295.21,4654.54 4301.83,4658.71C4307.59,4662.35 4312.79,4666.94 4317.1,4672.22C4321.78,4677.95 4325.36,4684.54 4327.75,4691.54L4327.8,4691.69C4330.6,4686.33 4333.95,4681.3 4337.79,4676.6C4337.91,4676.45 4338.03,4676.31 4338.15,4676.17C4343.82,4669.39 4350.4,4663.4 4358.02,4658.27C4358.05,4658.25 4358.08,4658.23 4358.11,4658.21C4364.75,4653.76 4371.94,4649.96 4379.63,4646.94C4386.92,4644.04 4394.63,4641.83 4402.61,4640.36C4410.33,4638.92 4418.22,4638.18 4426.13,4638.18C4437.68,4638.18 4447.32,4639.36 4455.2,4641.28C4466.42,4644 4475.56,4648.28 4483.1,4653.52C4483.16,4653.56 4483.22,4653.6 4483.28,4653.64C4483.85,4654.04 4484.4,4654.44 4484.96,4654.85C4485.19,4654.64 4485.44,4654.42 4485.68,4654.21C4488.56,4651.71 4491.74,4649.26 4495.24,4646.82C4495.49,4646.65 4495.73,4646.48 4495.99,4646.31C4500.32,4643.42 4504.96,4640.87 4509.99,4638.66C4509.99,4638.66 4509.99,4638.66 4509.99,4638.66C4514.7,4636.6 4519.77,4634.91 4525.1,4633.55C4525.34,4633.49 4525.58,4633.43 4525.82,4633.37C4532,4631.9 4538.55,4631.1 4545.45,4631.1C4559.25,4631.1 4569.7,4634.15 4577.27,4637.95C4586.84,4642.71 4593.7,4648.82 4598.77,4655.53C4599.32,4655.01 4599.88,4654.5 4600.46,4654.01C4603.34,4651.54 4606.5,4649.14 4609.97,4646.73C4610.03,4646.69 4610.1,4646.64 4610.16,4646.6C4614.58,4643.57 4619.39,4640.9 4624.7,4638.61C4626.08,4638.01 4627.49,4637.44 4628.92,4636.9C4588.14,4612.82 4540.65,4575.62 4492.43,4515.85C4486.38,4508.35 4478.48,4497.53 4469.18,4483.14ZM4714.51,4428.18C4703.91,4425.7 4692.72,4423.62 4681.5,4423.02C4681.48,4423.01 4681.46,4423.01 4681.44,4423.01C4676.02,4422.72 4670.69,4422.85 4665.36,4423.4C4665.31,4423.4 4665.27,4423.4 4665.22,4423.41C4658.81,4424.05 4652.3,4425.02 4646.11,4426.06C4639.44,4427.22 4632.96,4428.34 4626.84,4429.61C4620.91,4430.87 4615.26,4432.08 4610.03,4433.31C4632.39,4457.35 4657.3,4477.9 4685.23,4494.09C4687.75,4478.34 4694.65,4458.58 4710.81,4433.52C4712.02,4431.64 4713.26,4429.86 4714.51,4428.18ZM4411.56,4377.72C4398.22,4349.57 4384.15,4317.18 4369.81,4280.26C4350.57,4329.81 4331.88,4371.08 4314.89,4404.73C4317.31,4406.86 4319.48,4408.89 4321.43,4410.78L4323.36,4412.68C4332.06,4409.31 4345.18,4404.08 4349.69,4402.18C4349.86,4402.1 4350.03,4402.03 4350.21,4401.96C4359.79,4398.07 4391.89,4385.34 4411.56,4377.72ZM4056.44,4390.52L4057.42,4389.84C4057.42,4389.84 4056.7,4390.33 4056.33,4390.6L4056.44,4390.52Z" style="fill:white;"/>
                <g>
                    <g>
                        <g>
                            <g transform="matrix(1,0,0,1,-1299.21,662.701)">
                                <path d="M5321.84,4026.47C5323.81,4026.64 5325.35,4027.32 5326.23,4028.83C5327.28,4030.49 5327.77,4032.45 5327.77,4034.68L5327.77,4184.78C5327.77,4185.6 5327.91,4186.74 5328.24,4188.13C5328.52,4189.51 5329.23,4190.87 5330.4,4192.2C5331.56,4193.53 5333.32,4194.69 5335.64,4195.66C5337.99,4196.63 5341.11,4197.07 5345.09,4197.07C5349.08,4197.07 5352.17,4196.65 5354.47,4195.73C5356.75,4194.88 5358.5,4193.76 5359.65,4192.52C5360.79,4191.22 5361.54,4189.86 5361.84,4188.46C5362.13,4186.97 5362.29,4185.77 5362.29,4184.78L5362.29,4107.03C5362.88,4106.26 5363.61,4105.09 5364.49,4103.54C5365.33,4101.99 5366.41,4100.44 5367.61,4098.9C5368.87,4097.34 5370.32,4095.96 5371.94,4094.77C5373.6,4093.59 5375.53,4092.99 5377.71,4092.99C5379.51,4092.99 5381.27,4093.45 5383.03,4094.42C5384.82,4095.38 5386.36,4097.43 5387.77,4100.47C5389.15,4103.52 5390.28,4107.99 5391.14,4113.84C5392,4119.69 5392.41,4127.52 5392.41,4137.32C5392.41,4151.51 5391.98,4163.07 5391.03,4172.1C5390.1,4181.09 5388.74,4188.25 5386.93,4193.55C5385.13,4198.83 5382.92,4202.68 5380.3,4205.01C5377.68,4207.34 5374.68,4208.92 5371.29,4209.75L5372.42,4214.55C5375.1,4214.46 5378.32,4214 5382.06,4213.19C5385.81,4212.4 5389.73,4210.91 5393.78,4208.87C5397.82,4206.76 5401.84,4203.86 5405.83,4200.17C5409.81,4196.48 5413.35,4191.76 5416.47,4185.94C5419.64,4180.12 5422.22,4173.07 5424.14,4164.76C5426.07,4156.44 5427.07,4146.68 5427.07,4135.41C5427.07,4123.9 5426.37,4114.21 5424.92,4106.42C5423.54,4098.63 5421.46,4092.37 5418.73,4087.62C5416.05,4082.89 5412.69,4079.53 5408.73,4077.49C5404.77,4075.49 5400.28,4074.49 5395.23,4074.49C5392.93,4074.49 5390.65,4074.78 5388.43,4075.41C5386.2,4076.05 5384.11,4076.87 5382.16,4077.9C5380.14,4078.97 5378.27,4080.15 5376.54,4081.47C5374.73,4082.76 5373.17,4084.13 5371.72,4085.54C5368.21,4088.79 5365.08,4092.45 5362.29,4096.57L5362.29,4033.42C5362.29,4031.72 5362.13,4029.76 5361.91,4027.53C5361.62,4025.33 5360.86,4023.22 5359.61,4021.25C5358.33,4019.29 5356.33,4017.6 5353.64,4016.25C5350.96,4014.89 5347.14,4014.23 5342.27,4014.23C5339.14,4014.23 5336.14,4014.58 5333.29,4015.26C5330.42,4015.98 5327.74,4016.84 5325.24,4017.94C5322.72,4019.03 5320.41,4020.28 5318.31,4021.71C5317.42,4022.34 5316.7,4022.97 5315.86,4023.58C5314.35,4023.32 5312.48,4023.05 5309.98,4022.82C5306.52,4022.52 5302.42,4022.24 5297.64,4022.02C5292.91,4021.79 5287.64,4021.62 5281.84,4021.47C5276.09,4021.39 5270.16,4021.31 5264.09,4021.31C5251.36,4021.31 5239.37,4022.38 5228.22,4024.46C5217.03,4026.54 5207.26,4029.79 5198.87,4034.17C5190.46,4038.55 5183.85,4044.05 5179,4050.68C5174.17,4057.31 5171.76,4065.18 5171.76,4074.24C5171.76,4077.65 5172.28,4080.9 5173.34,4083.89C5174.38,4086.94 5175.91,4089.56 5177.95,4091.83C5179.97,4094.07 5182.41,4095.83 5185.31,4097.1C5188.2,4098.4 5191.44,4099.03 5195.04,4099.03C5197.37,4099.03 5199.69,4098.65 5202.06,4097.9C5204.43,4097.18 5206.52,4096.07 5208.35,4094.55C5210.2,4093.02 5211.7,4091.14 5212.85,4088.91C5214.01,4086.64 5214.61,4084 5214.61,4080.9C5214.61,4078.71 5214.32,4076.87 5213.7,4075.34C5213.11,4073.83 5212.38,4072.6 5211.51,4071.67C5210.64,4070.76 5209.7,4070.07 5208.7,4069.66C5207.68,4069.24 5206.73,4069.02 5205.84,4069.02C5204.71,4069.02 5203.71,4069.33 5202.85,4070.01C5201.98,4070.65 5201.06,4071.37 5200.09,4072.09C5199.12,4072.81 5198.03,4073.54 5196.85,4074.17C5195.64,4074.86 5194.09,4075.17 5192.22,4075.17C5191.85,4075.17 5191.23,4075.1 5190.36,4074.9C5189.51,4074.71 5188.66,4074.21 5187.84,4073.5C5187.02,4072.76 5186.29,4071.64 5185.64,4070.19C5185.01,4068.7 5184.69,4066.73 5184.69,4064.23C5184.69,4060.74 5185.66,4057.59 5187.63,4054.7C5189.57,4051.83 5192.08,4049.25 5195.15,4046.95C5198.22,4044.67 5201.72,4042.65 5205.61,4040.9C5209.5,4039.16 5213.41,4037.68 5217.32,4036.43C5221.2,4035.21 5224.91,4034.26 5228.49,4033.58C5232.05,4032.92 5235.03,4032.5 5237.44,4032.25L5237.44,4179.97C5237.44,4185.96 5238.94,4190.28 5241.94,4193C5244.94,4195.72 5249.58,4197.07 5255.87,4197.07C5262.1,4197.07 5266.72,4195.72 5269.71,4193C5272.71,4190.28 5274.21,4185.96 5274.21,4179.97L5274.21,4032.02C5280.67,4032.25 5286.15,4032.72 5290.67,4033.42C5295.21,4034.1 5299.04,4034.88 5302.14,4035.75C5305.28,4036.6 5307.77,4037.54 5309.68,4038.54C5311.59,4039.54 5313.12,4040.44 5314.24,4041.22C5315.37,4041.99 5316.24,4042.64 5316.88,4043.2C5317.53,4043.74 5318.13,4043.99 5318.74,4043.99C5319.72,4043.99 5320.55,4043.64 5321.23,4042.97C5321.89,4042.26 5322.44,4041.42 5322.89,4040.39C5323.36,4039.38 5323.71,4038.33 5323.92,4037.19C5324.13,4036.05 5324.26,4035.07 5324.26,4034.24C5324.26,4033.13 5324.16,4032.09 5324.02,4031.01C5323.89,4029.99 5323.57,4029.01 5323.14,4028.06C5322.83,4027.47 5322.29,4026.98 5321.84,4026.47Z" style="fill:rgb(1,0,1);fill-rule:nonzero;"/>
                            </g>
                            <g transform="matrix(0.925859,0,0,0.957747,4194.08,4770.89)">
                                <path d="M0,57.621C0,59.693 -0.405,61.81 -1.211,63.928C-2.022,66 -3.168,67.945 -4.479,69.635C-5.88,71.303 -7.496,72.703 -9.348,73.838C-11.225,74.904 -13.198,75.482 -15.35,75.482C-17.021,75.482 -18.645,75.1 -20.189,74.336C-21.707,73.654 -23.097,72.348 -24.285,70.519C-25.414,68.713 -26.364,66.246 -27.02,63.16C-27.759,60.1 -28.06,56.226 -28.06,51.535C-28.06,46.678 -27.543,42.41 -26.369,38.73C-25.242,35.053 -23.707,31.906 -21.734,29.422C-19.84,26.922 -17.6,24.992 -15.016,23.725C-12.498,22.414 -9.753,21.746 -6.918,21.746C-4.891,21.746 -3.24,22.303 -1.973,23.342C-0.639,24.375 0,25.955 0,27.982L0,57.621ZM46.444,75.976C45.154,77.115 43.854,77.639 42.381,77.639C41.181,77.639 40.23,77.383 39.598,76.926C38.964,76.422 38.436,75.814 38.152,75.1C37.803,74.336 37.59,73.525 37.541,72.664C37.418,71.775 37.396,70.98 37.396,70.236L37.396,1.613C37.396,-4.934 36.063,-10.547 33.467,-15.16C30.844,-19.762 27.266,-23.574 22.842,-26.592C18.479,-29.576 13.404,-31.738 7.614,-33.121C1.867,-34.516 -4.157,-35.184 -10.492,-35.184C-15.755,-35.184 -21.002,-34.666 -26.242,-33.543C-31.506,-32.483 -36.262,-30.781 -40.391,-28.498C-44.604,-26.231 -47.927,-23.358 -50.533,-19.85C-53.15,-16.293 -54.418,-12.059 -54.418,-7.129C-54.418,-2.039 -53.028,2.035 -50.283,5.113C-47.465,8.203 -43.803,9.738 -39.246,9.738C-37.546,9.738 -35.912,9.455 -34.317,8.838C-32.744,8.248 -31.404,7.359 -30.209,6.281C-29.026,5.191 -28.109,3.92 -27.404,2.502C-26.736,1.107 -26.369,-0.443 -26.369,-2.16C-26.369,-4.74 -26.998,-6.692 -28.232,-7.936C-29.531,-9.174 -30.877,-10.158 -32.455,-10.83C-34,-11.553 -35.373,-12.164 -36.668,-12.654C-37.912,-13.203 -38.535,-14.049 -38.535,-15.266C-38.535,-16.322 -38.023,-17.455 -37.09,-18.633C-36.101,-19.774 -34.728,-20.889 -33.056,-21.84C-31.365,-22.795 -29.354,-23.608 -26.98,-24.264C-24.625,-24.93 -22.09,-25.219 -19.307,-25.219C-13.255,-25.219 -8.48,-23.424 -4.951,-19.85C-1.411,-16.244 0.345,-11.408 0.345,-5.461C0.345,-1.555 -0.744,2.23 -2.855,5.896C-5.035,9.588 -8.465,12.371 -13.148,14.223C-19.456,16.756 -25.608,19.125 -31.66,21.402C-37.718,23.682 -43.053,26.392 -47.844,29.617C-52.557,32.807 -56.391,36.746 -59.281,41.432C-62.204,46.123 -63.682,52.168 -63.682,59.521C-63.682,65.596 -62.787,70.779 -61.07,74.941C-59.298,79.183 -57.014,82.611 -54.156,85.246C-51.272,87.875 -48.01,89.769 -44.369,90.986C-40.73,92.205 -36.929,92.805 -33.056,92.805C-30.043,92.805 -27.109,92.516 -24.131,91.838C-21.162,91.187 -18.238,90.148 -15.35,88.703C-12.387,87.258 -9.536,85.307 -6.758,83.002C-3.995,80.623 -1.25,77.738 1.295,74.266C2.501,80.572 5.118,85.246 9.115,88.285C13.043,91.326 17.601,92.805 22.725,92.805C26.832,92.805 30.499,92.205 33.75,90.986C36.99,89.769 39.83,88.297 42.26,86.496C44.688,84.701 46.743,82.83 48.417,80.801C50.162,78.771 51.612,76.926 52.818,75.215L49.783,72.664C48.801,73.793 47.711,74.904 46.444,75.976" style="fill:rgb(1,0,1);fill-rule:nonzero;"/>
                            </g>
                            <g transform="matrix(0.925859,0,0,0.957747,4253.69,4699.18)">
                                <path d="M0,23.834C1.828,25.318 3.906,26.523 6.314,27.402C8.721,28.314 11.343,28.748 14.178,28.748C16.89,28.748 19.49,28.314 21.885,27.402C24.23,26.523 26.376,25.318 28.104,23.834C29.895,22.313 31.3,20.572 32.307,18.555C33.316,16.527 33.861,14.332 33.861,11.975C33.861,9.703 33.316,7.547 32.307,5.473C31.3,3.4 29.895,1.605 28.104,0.088C26.376,-1.475 24.23,-2.691 21.885,-3.559C19.49,-4.471 16.89,-4.914 14.178,-4.914C11.343,-4.914 8.721,-4.471 6.314,-3.559C3.906,-2.691 1.828,-1.475 0,0.088C-1.816,1.605 -3.239,3.4 -4.25,5.473C-5.269,7.547 -5.764,9.703 -5.764,11.975C-5.764,14.332 -5.269,16.527 -4.25,18.555C-3.239,20.572 -1.816,22.313 0,23.834" style="fill:rgb(1,0,1);fill-rule:nonzero;"/>
                            </g>
                            <g transform="matrix(0.925859,0,0,0.957747,4286,4846.4)">
                                <path d="M0,-100.054C-0.338,-102.411 -1.154,-104.628 -2.551,-106.679C-3.873,-108.73 -6.04,-110.507 -8.924,-111.925C-11.893,-113.349 -15.982,-114.021 -21.245,-114.021C-24.641,-114.021 -27.836,-113.665 -30.977,-112.949C-34.038,-112.191 -36.9,-111.298 -39.551,-110.136C-42.219,-109.019 -44.72,-107.691 -47.049,-106.23C-49.326,-104.679 -51.455,-103.2 -53.323,-101.632L-50.729,-98.599C-49.633,-99.505 -48.521,-100.183 -47.604,-100.677C-46.627,-101.171 -45.441,-101.4 -44.047,-101.4C-41.451,-101.4 -39.596,-100.554 -38.539,-98.777C-37.468,-97.066 -36.9,-95.021 -36.9,-92.658L-36.9,1.13C-36.9,1.985 -36.744,3.18 -36.483,4.626C-36.189,6.065 -35.45,7.487 -34.244,8.882C-33.021,10.272 -31.203,11.477 -28.775,12.489C-26.342,13.501 -22.935,13.967 -18.655,13.967C-14.376,13.967 -10.959,13.528 -8.469,12.561C-5.984,11.678 -4.034,10.51 -2.727,9.21C-1.377,7.854 -0.533,6.43 -0.16,4.969C0.229,3.419 0.418,2.163 0.418,1.13L0.418,-93.874C0.418,-95.675 0.245,-97.726 0,-100.054Z" style="fill:rgb(1,0,1);fill-rule:nonzero;"/>
                            </g>
                        </g>
                        <g>
                            <g transform="matrix(0.925859,0,0,0.957747,4419.3,4754.27)">
                                <path d="M0,46.314C3.063,36.015 6.141,24.896 9.309,13.025C12.394,1.105 15.628,-11.616 18.918,-25.116L39.597,46.314L0,46.314ZM106.252,96.375C104.352,97.16 102.201,97.548 99.939,97.548C98.911,97.548 98.055,97.326 97.311,96.802C96.66,96.332 96.077,95.714 95.638,94.925C95.215,94.146 94.827,93.269 94.459,92.23C94.182,91.152 93.832,90.023 93.477,88.806L84.057,56.962L107.47,56.962L107.47,46.314L81.088,46.314L55.024,-43.461C53.591,-48.418 51.712,-52.752 49.439,-56.541C47.287,-60.29 44.314,-63.413 40.664,-65.889C37.014,-68.34 32.521,-70.198 27.086,-71.465C21.752,-72.731 15.205,-73.354 7.375,-73.354C1.873,-73.354 -3.606,-72.854 -8.969,-71.881C-14.416,-70.92 -19.65,-69.487 -24.586,-67.575C-29.604,-65.686 -34.25,-63.317 -38.535,-60.54C-42.813,-57.754 -46.51,-54.508 -49.699,-50.825C-52.818,-47.133 -55.363,-43.043 -57.086,-38.538C-58.881,-34.045 -59.82,-29.145 -59.82,-23.793C-59.82,-20.231 -59.236,-16.807 -58.063,-13.567C-56.985,-10.327 -55.246,-7.51 -53.117,-5.075C-50.917,-2.653 -48.277,-0.729 -45.104,0.687C-42.025,2.111 -38.535,2.794 -34.65,2.794C-32.094,2.794 -29.604,2.427 -27.025,1.671C-24.514,0.888 -22.258,-0.301 -20.268,-1.874C-18.25,-3.448 -16.633,-5.403 -15.4,-7.766C-14.148,-10.094 -13.526,-12.901 -13.526,-16.145C-13.526,-18.401 -13.81,-20.331 -14.433,-21.903C-15.15,-23.481 -15.871,-24.743 -16.839,-25.715C-17.795,-26.711 -18.817,-27.405 -19.873,-27.868C-20.946,-28.317 -21.94,-28.54 -22.879,-28.54C-24.098,-28.54 -25.152,-28.172 -26.146,-27.51C-27.131,-26.799 -28.143,-26.094 -29.07,-25.311C-30.094,-24.526 -31.271,-23.815 -32.65,-23.11C-33.934,-22.448 -35.566,-22.071 -37.54,-22.071C-37.996,-22.071 -38.735,-22.204 -39.597,-22.403C-40.541,-22.61 -41.408,-23.071 -42.375,-23.866C-43.259,-24.631 -44.07,-25.76 -44.81,-27.317C-45.459,-28.856 -45.826,-30.922 -45.826,-33.5C-45.826,-37.959 -44.598,-41.977 -42.152,-45.594C-39.602,-49.207 -36.5,-52.241 -32.678,-54.719C-28.849,-57.176 -24.691,-59.065 -20.039,-60.416C-15.365,-61.75 -10.787,-62.428 -6.457,-62.428C-1.773,-62.428 2.012,-61.643 4.74,-60.1C7.559,-58.582 9.775,-55.538 11.393,-51.002C10.176,-45.489 8.721,-39.038 6.919,-31.618C5.124,-24.225 3.096,-16.256 0.834,-7.766C-1.417,0.726 -3.834,9.619 -6.436,18.834C-8.925,28.08 -11.548,37.234 -14.205,46.314L-46.054,46.314L-46.054,56.962L-17.4,56.962C-20.467,66.466 -23.58,74.574 -26.83,81.287C-30.07,88 -33.479,93.513 -36.979,97.853C-40.547,102.195 -44.203,105.361 -47.955,107.384C-51.778,109.402 -55.818,110.408 -60.049,110.408C-64.148,110.408 -67.389,109.529 -69.768,107.734C-72.074,105.978 -74.041,104.023 -75.515,101.849C-76.98,99.744 -78.275,97.753 -79.199,95.959C-80.183,94.203 -81.35,93.296 -82.616,93.296C-84.057,93.296 -85.412,93.691 -86.535,94.474C-87.718,95.242 -88.713,96.23 -89.523,97.509C-90.336,98.753 -90.958,100.138 -91.396,101.623C-91.903,103.099 -92.12,104.617 -92.12,106.062C-92.12,107.974 -91.303,109.773 -89.563,111.459C-87.93,113.148 -85.695,114.576 -82.994,115.793C-80.204,117.003 -77.081,117.904 -73.463,118.644C-69.834,119.3 -66.122,119.668 -62.177,119.668C-55.185,119.668 -48.761,118.433 -43.059,115.865C-37.357,113.386 -32.094,109.529 -27.359,104.361C-22.541,99.171 -18.234,92.664 -14.249,84.783C-10.358,76.953 -6.686,67.677 -3.268,56.962L42.476,56.962L52.207,90.634C52.662,92.3 53.385,94.308 54.23,96.558C55.058,98.832 56.447,100.994 58.331,103.029C60.248,105.05 62.91,106.724 66.229,108.119C69.629,109.513 74.048,110.164 79.577,110.164C83.5,110.164 87.269,109.757 90.748,108.947C94.221,108.14 97.36,107.128 100.273,105.906C103.151,104.701 105.642,103.439 107.887,102.087C110.104,100.777 111.943,99.578 113.422,98.537L111.344,94.058C109.898,94.859 108.227,95.636 106.252,96.375" style="fill:rgb(152,201,60);fill-rule:nonzero;"/>
                            </g>
                            <g transform="matrix(0.925859,0,0,0.957747,4674.83,4688.43)">
                                <path d="M0,196.334C-0.816,196.672 -1.689,196.945 -2.668,197.168C-3.652,197.395 -4.641,197.551 -5.58,197.551C-11.176,197.551 -17.051,195.75 -23.181,192.217C-29.355,188.631 -35.763,183.117 -42.448,175.621C-49.139,168.123 -56.064,158.57 -63.3,146.973C-70.479,135.352 -69.463,134.418 -77.082,118.336C-71.43,115.383 -66.7,112.172 -62.972,108.637C-59.275,105.143 -56.264,101.496 -54.047,97.695C-51.813,93.973 -50.256,90.143 -49.328,86.297C-48.372,82.445 -47.922,78.754 -47.922,75.176C-47.922,73.26 -48.322,70.875 -49.095,68.156C-49.851,65.385 -51.179,62.738 -53.074,60.188C-55.008,57.648 -57.476,55.441 -60.543,53.613C-63.605,51.791 -67.457,50.912 -72.097,50.912C-77.277,50.912 -82.05,51.93 -86.44,53.951C-90.781,55.975 -94.843,58.549 -98.54,61.717C-102.318,64.879 -105.786,68.412 -109.031,72.309C-112.277,76.275 -115.312,80.145 -118.156,83.936L-118.156,8.025C-118.156,6.254 -118.268,4.201 -118.563,1.873C-118.818,-0.422 -119.652,-2.623 -121.036,-4.678C-122.436,-6.728 -124.531,-8.486 -127.493,-9.902C-130.389,-11.32 -134.463,-12.01 -139.736,-12.01C-143.154,-12.01 -146.405,-11.641 -149.467,-10.936C-152.529,-10.18 -155.459,-9.281 -158.165,-8.135C-160.854,-6.996 -163.338,-5.689 -165.65,-4.195C-167.9,-2.678 -169.957,-1.178 -171.809,0.379L-169.374,3.27C-168.291,2.402 -167.162,1.725 -166.14,1.279C-165.134,0.818 -163.934,0.607 -162.615,0.607C-159.999,0.607 -158.165,1.469 -157.086,3.23C-155.964,4.965 -155.386,7.02 -155.386,9.344L-155.386,166.063C-155.386,166.918 -155.303,168.113 -154.963,169.559C-154.73,170.998 -153.963,172.42 -152.797,173.814C-151.656,175.205 -149.84,176.41 -147.41,177.422C-144.971,178.434 -141.586,178.9 -137.297,178.9C-133.018,178.9 -129.589,178.461 -127.082,177.494C-124.498,176.611 -122.592,175.461 -121.225,174.193C-119.891,172.898 -119.024,171.537 -118.674,170.074C-118.34,168.586 -118.156,167.33 -118.156,166.285L-118.156,103.592C-116.701,100.063 -114.784,96.094 -112.527,91.766C-110.276,87.453 -107.781,83.406 -104.964,79.611C-102.157,75.871 -99.256,72.691 -96.121,70.146C-93.043,67.602 -90.003,66.334 -87.058,66.334C-85.496,66.334 -84.283,66.596 -83.468,67.18C-82.622,67.752 -81.956,68.396 -81.482,69.102C-81.044,69.842 -80.811,70.619 -80.723,71.363C-80.633,72.109 -80.605,72.682 -80.605,73.004C-80.605,75.176 -80.855,77.816 -81.443,80.9C-82.027,83.996 -83.439,87.496 -85.701,91.471C-87.947,95.428 -91.354,99.873 -95.811,104.764C-100.256,109.654 -106.369,114.973 -114.116,120.77C-108.398,134.508 -111.277,133.58 -105.93,143.877C-100.557,154.125 -95.404,163.021 -90.331,170.48C-85.268,177.889 -80.305,184.086 -75.515,188.926C-70.674,193.766 -65.945,197.689 -61.221,200.584C-56.508,203.48 -51.824,205.504 -47.183,206.67C-42.504,207.76 -37.802,208.344 -33.062,208.344C-27.799,208.344 -23.23,208.109 -19.445,207.66C-15.639,207.127 -12.243,206.492 -9.342,205.682C-6.453,204.871 -3.852,203.893 -1.602,202.83C0.688,201.752 2.912,200.584 5.079,199.379L2.806,195.117C1.816,195.566 0.889,195.973 0,196.334" style="fill:rgb(152,201,60);fill-rule:nonzero;"/>
                            </g>
                            <g transform="matrix(0.925859,0,0,0.957747,4736.48,4803.86)">
                                <path d="M0,-55.9C-2.911,-60.836 -6.514,-64.347 -10.809,-66.476C-15.104,-68.56 -19.962,-69.605 -25.386,-69.605C-27.897,-69.605 -30.359,-69.304 -32.721,-68.644C-35.128,-67.982 -37.373,-67.127 -39.563,-66.052C-41.675,-64.935 -43.686,-63.697 -45.637,-62.324C-47.51,-60.968 -49.216,-59.546 -50.766,-58.072C-54.596,-54.683 -57.98,-50.853 -60.965,-46.558L-60.965,-112.492C-60.965,-114.263 -61.115,-116.316 -61.403,-118.644C-61.703,-120.939 -62.521,-123.14 -63.904,-125.195C-65.266,-127.246 -67.416,-129.004 -70.329,-130.42C-73.269,-131.838 -77.342,-132.527 -82.605,-132.527C-86,-132.527 -89.252,-132.158 -92.33,-131.453C-95.398,-130.697 -98.282,-129.798 -100.988,-128.652C-103.734,-127.513 -106.201,-126.207 -108.458,-124.713C-110.726,-123.195 -112.804,-121.695 -114.682,-120.138L-112.254,-117.248C-111.081,-118.115 -110.036,-118.793 -109.03,-119.238C-108.014,-119.699 -106.801,-119.91 -105.412,-119.91C-102.822,-119.91 -100.988,-119.048 -99.906,-117.287C-98.844,-115.552 -98.276,-113.498 -98.276,-111.173L-98.276,45.545C-98.276,46.401 -98.1,47.596 -97.793,49.041C-97.466,50.481 -96.659,51.903 -95.426,53.297C-94.181,54.688 -92.275,55.893 -89.763,56.905C-87.279,57.916 -83.861,58.383 -79.576,58.383C-75.297,58.383 -71.885,57.944 -69.422,56.977C-66.973,56.094 -65.109,54.926 -63.826,53.625C-62.564,52.27 -61.775,50.846 -61.48,49.385C-61.125,47.834 -60.965,46.579 -60.965,45.545L-60.965,-35.632C-60.32,-36.439 -59.525,-37.654 -58.63,-39.279C-57.675,-40.9 -56.557,-42.517 -55.212,-44.125C-53.861,-45.746 -52.311,-47.191 -50.544,-48.437C-48.738,-49.67 -46.698,-50.293 -44.337,-50.293C-42.413,-50.293 -40.452,-49.81 -38.567,-48.798C-36.668,-47.802 -34.944,-45.658 -33.483,-42.478C-31.966,-39.295 -30.748,-34.627 -29.838,-28.525C-28.881,-22.416 -28.414,-14.236 -28.414,-4.011C-28.414,10.811 -28.926,22.875 -29.937,32.307C-30.949,41.694 -32.455,49.168 -34.361,54.704C-36.334,60.217 -38.717,64.241 -41.557,66.668C-44.376,69.102 -47.599,70.754 -51.25,71.621L-50.027,76.627C-47.121,76.539 -43.646,76.055 -39.591,75.215C-35.539,74.383 -31.332,72.832 -26.98,70.704C-22.568,68.496 -18.272,65.469 -13.993,61.618C-9.703,57.766 -5.846,52.836 -2.428,46.756C0.996,40.678 3.725,33.319 5.842,24.639C7.932,15.952 8.977,5.77 8.977,-5.996C8.977,-18.019 8.203,-28.14 6.686,-36.271C5.113,-44.408 2.912,-50.937 0,-55.9" style="fill:rgb(152,201,60);fill-rule:nonzero;"/>
                            </g>
                            <g transform="matrix(0.925859,0,0,0.957747,4818.67,4770.89)">
                                <path d="M0,57.621C0,59.693 -0.412,61.81 -1.217,63.928C-2.029,66 -3.09,67.945 -4.49,69.635C-5.853,71.303 -7.48,72.703 -9.348,73.838C-11.205,74.904 -13.205,75.482 -15.295,75.482C-17,75.482 -18.612,75.1 -20.152,74.336C-21.691,73.654 -23.047,72.348 -24.209,70.519C-25.403,68.713 -26.32,66.246 -27.026,63.16C-27.693,60.1 -28.043,56.226 -28.043,51.535C-28.043,46.678 -27.465,42.41 -26.338,38.73C-25.209,35.053 -23.664,31.906 -21.735,29.422C-19.773,26.922 -17.539,24.992 -15,23.725C-12.432,22.414 -9.754,21.746 -6.919,21.746C-4.896,21.746 -3.246,22.303 -1.939,23.342C-0.64,24.375 0,25.955 0,27.982L0,57.621ZM49.8,72.664C48.838,73.793 47.721,74.904 46.471,75.976C45.215,77.115 43.854,77.639 42.408,77.639C41.191,77.639 40.246,77.383 39.607,76.926C38.957,76.422 38.475,75.814 38.146,75.1C37.818,74.336 37.623,73.525 37.54,72.664C37.469,71.775 37.412,70.98 37.412,70.236L37.412,1.613C37.412,-4.934 36.105,-10.547 33.467,-15.16C30.844,-19.762 27.314,-23.574 22.907,-26.592C18.494,-29.576 13.41,-31.738 7.674,-33.121C1.928,-34.516 -4.118,-35.184 -10.438,-35.184C-15.7,-35.184 -20.963,-34.666 -26.23,-33.543C-31.494,-32.483 -36.196,-30.781 -40.381,-28.498C-44.537,-26.231 -47.944,-23.358 -50.529,-19.85C-53.107,-16.293 -54.436,-12.059 -54.436,-7.129C-54.436,-2.039 -53.019,2.035 -50.212,5.113C-47.422,8.203 -43.754,9.738 -39.219,9.738C-37.523,9.738 -35.891,9.455 -34.313,8.838C-32.723,8.248 -31.334,7.359 -30.172,6.281C-28.994,5.191 -28.07,3.92 -27.376,2.502C-26.687,1.107 -26.338,-0.443 -26.338,-2.16C-26.338,-4.74 -26.971,-6.692 -28.248,-7.936C-29.482,-9.174 -30.889,-10.158 -32.412,-10.83C-33.951,-11.553 -35.362,-12.164 -36.607,-12.654C-37.863,-13.203 -38.479,-14.049 -38.479,-15.266C-38.479,-16.322 -38.008,-17.455 -37.018,-18.633C-36.051,-19.774 -34.746,-20.889 -33.039,-21.84C-31.328,-22.795 -29.305,-23.608 -26.965,-24.264C-24.609,-24.93 -22.053,-25.219 -19.312,-25.219C-13.227,-25.219 -8.432,-23.424 -4.912,-19.85C-1.39,-16.244 0.377,-11.408 0.377,-5.461C0.377,-1.555 -0.695,2.23 -2.857,5.896C-4.991,9.588 -8.414,12.371 -13.115,14.223C-19.429,16.756 -25.609,19.125 -31.645,21.402C-37.663,23.682 -43.06,26.392 -47.783,29.617C-52.535,32.807 -56.348,36.746 -59.287,41.432C-62.182,46.123 -63.633,52.168 -63.633,59.521C-63.633,65.596 -62.771,70.779 -61.01,74.941C-59.304,79.183 -56.975,82.611 -54.09,85.246C-51.218,87.875 -47.961,89.769 -44.309,90.986C-40.664,92.205 -36.93,92.805 -33.039,92.805C-30.049,92.805 -27.055,92.516 -24.114,91.838C-21.146,91.187 -18.218,90.148 -15.295,88.703C-12.394,87.258 -9.531,85.307 -6.73,83.002C-3.936,80.623 -1.239,77.738 1.355,74.266C2.567,80.572 5.156,85.246 9.125,88.285C13.093,91.326 17.628,92.805 22.719,92.805C26.854,92.805 30.531,92.205 33.771,90.986C37.007,89.769 39.841,88.297 42.275,86.496C44.703,84.701 46.788,82.83 48.482,80.801C50.178,78.771 51.64,76.926 52.861,75.215L49.8,72.664Z" style="fill:rgb(152,201,60);fill-rule:nonzero;"/>
                            </g>
                        </g>
                    </g>
                    <g>
                        <g transform="matrix(0.925859,0,0,0.957747,4915.78,4957.19)">
                            <path d="M0,-5.479C0,-9.125 -2.917,-12.038 -6.562,-12.149C-9.22,-12.165 -15.166,-19.063 -18.017,-22.352C-19.729,-24.352 -21.357,-26.204 -22.824,-27.653C-25.809,-30.649 -28.643,-33.612 -31.466,-36.563C-35.322,-40.602 -39.141,-44.598 -43.221,-48.522C-53.846,-58.758 -70.001,-65.172 -85.39,-65.172C-99.078,-65.172 -110.781,-60.415 -119.033,-51.624C-129.672,-60.393 -142.848,-65.172 -156.875,-65.172L-1021.93,-65.172C-1035.73,-65.172 -1049.14,-60.303 -1059.76,-51.612C-1068.01,-60.393 -1079.71,-65.172 -1093.42,-65.172C-1108.8,-65.172 -1124.96,-58.758 -1135.59,-48.522C-1139.62,-44.637 -1143.42,-40.629 -1147.25,-36.624C-1150.11,-33.682 -1152.96,-30.665 -1155.97,-27.653C-1157.44,-26.198 -1159.07,-24.346 -1160.78,-22.34C-1163.63,-19.051 -1169.58,-12.165 -1172.24,-12.149C-1175.87,-12.038 -1178.8,-9.125 -1178.8,-5.479C-1178.8,-4.485 -1178.55,-3.606 -1178.16,-2.702C-1178.55,-1.874 -1178.8,-0.995 -1178.8,0C-1178.8,3.646 -1175.87,6.636 -1172.24,6.669C-1169.58,6.681 -1163.63,13.578 -1160.78,16.867C-1159.06,18.867 -1157.44,20.724 -1155.97,22.175C-1152.93,25.208 -1150.04,28.244 -1147.16,31.267C-1143.36,35.267 -1139.6,39.181 -1135.59,43.042C-1124.96,53.347 -1108.81,59.681 -1093.42,59.681C-1079.73,59.681 -1068.03,54.974 -1059.77,46.144C-1049.14,54.974 -1035.95,59.693 -1021.93,59.693L-156.875,59.693C-143.081,59.693 -129.666,54.824 -119.033,46.138C-110.781,54.974 -99.078,59.681 -85.385,59.681C-69.99,59.681 -53.846,53.347 -43.221,43.048C-39.174,39.164 -35.373,35.162 -31.566,31.222C-28.704,28.21 -25.836,25.193 -22.824,22.175C-21.357,20.724 -19.746,18.878 -18.023,16.873C-15.166,13.583 -9.22,6.681 -6.562,6.669C-2.917,6.636 0,3.646 0,0C0,-0.995 -0.256,-1.874 -0.645,-2.702C-0.256,-3.606 0,-4.485 0,-5.479" style="fill-rule:nonzero;"/>
                        </g>
                        <g transform="matrix(0.925859,0,0,0.957747,4915.78,4957.19)">
                            <path d="M0,-5.479C0,-9.125 -2.917,-12.038 -6.562,-12.149C-9.22,-12.165 -15.166,-19.063 -18.017,-22.352C-19.729,-24.352 -21.357,-26.204 -22.824,-27.653C-25.809,-30.649 -28.643,-33.612 -31.466,-36.563C-35.322,-40.602 -39.141,-44.598 -43.221,-48.522C-53.846,-58.758 -70.001,-65.172 -85.39,-65.172C-99.078,-65.172 -110.781,-60.415 -119.033,-51.624C-129.672,-60.393 -142.848,-65.172 -156.875,-65.172L-1021.93,-65.172C-1035.73,-65.172 -1049.14,-60.303 -1059.76,-51.612C-1068.01,-60.393 -1079.71,-65.172 -1093.42,-65.172C-1108.8,-65.172 -1124.96,-58.758 -1135.59,-48.522C-1139.62,-44.637 -1143.42,-40.629 -1147.25,-36.624C-1150.11,-33.682 -1152.96,-30.665 -1155.97,-27.653C-1157.44,-26.198 -1159.07,-24.346 -1160.78,-22.34C-1163.63,-19.051 -1169.58,-12.165 -1172.24,-12.149C-1175.87,-12.038 -1178.8,-9.125 -1178.8,-5.479C-1178.8,-4.485 -1178.55,-3.606 -1178.16,-2.702C-1178.55,-1.874 -1178.8,-0.995 -1178.8,0C-1178.8,3.646 -1175.87,6.636 -1172.24,6.669C-1169.58,6.681 -1163.63,13.578 -1160.78,16.867C-1159.06,18.867 -1157.44,20.724 -1155.97,22.175C-1152.93,25.208 -1150.04,28.244 -1147.16,31.267C-1143.36,35.267 -1139.6,39.181 -1135.59,43.042C-1124.96,53.347 -1108.81,59.681 -1093.42,59.681C-1079.73,59.681 -1068.03,54.974 -1059.77,46.144C-1049.14,54.974 -1035.95,59.693 -1021.93,59.693L-156.875,59.693C-143.081,59.693 -129.666,54.824 -119.033,46.138C-110.781,54.974 -99.078,59.681 -85.385,59.681C-69.99,59.681 -53.846,53.347 -43.221,43.048C-39.174,39.164 -35.373,35.162 -31.566,31.222C-28.704,28.21 -25.836,25.193 -22.824,22.175C-21.357,20.724 -19.746,18.878 -18.023,16.873C-15.166,13.583 -9.22,6.681 -6.562,6.669C-2.917,6.636 0,3.646 0,0C0,-0.995 -0.256,-1.874 -0.645,-2.702C-0.256,-3.606 0,-4.485 0,-5.479" style="fill:rgb(1,0,1);fill-rule:nonzero;"/>
                        </g>
                        <g transform="matrix(0.925859,0,0,0.957747,4836.72,5002.52)">
                            <path d="M0,-105.625C13.677,-105.625 28.004,-99.967 37.418,-90.937C41.304,-87.158 44.893,-83.434 48.694,-79.434L48.967,-79.178L49.3,-78.805C52.057,-75.943 54.819,-73.07 57.731,-70.119C58.992,-68.873 60.437,-67.234 62.177,-65.205C68.567,-57.748 72.686,-53.752 76.909,-52.807C72.726,-51.84 68.606,-47.883 62.165,-40.414C60.548,-38.562 59.031,-36.768 57.731,-35.473C54.669,-32.455 51.756,-29.41 48.86,-26.375C44.882,-22.17 41.27,-18.451 37.413,-14.672C28.004,-5.652 13.688,0 0.005,0C-11.737,0 -21.651,-3.902 -28.665,-11.359L-33.022,-16.018L-37.979,-11.971C-47.433,-4.252 -59.331,0 -71.485,0L-936.543,0C-948.97,0 -960.534,-4.102 -970.021,-11.955L-974.967,-16.029L-979.363,-11.354C-986.365,-3.896 -996.274,0 -1008.03,0C-1021.71,0 -1036.03,-5.658 -1045.45,-14.684C-1049.18,-18.307 -1052.66,-21.941 -1056.32,-25.793L-1056.82,-26.26L-1057.46,-26.971C-1060.16,-29.787 -1062.89,-32.65 -1065.74,-35.43C-1067.02,-36.752 -1068.54,-38.475 -1070.2,-40.414C-1076.6,-47.811 -1080.72,-51.84 -1084.93,-52.807C-1080.72,-53.752 -1076.6,-57.742 -1070.19,-65.199C-1068.75,-66.855 -1067.1,-68.801 -1065.74,-70.123C-1062.82,-73.086 -1060.03,-75.971 -1057.26,-78.848L-1056.91,-79.227C-1053.23,-83.072 -1049.44,-87.057 -1045.43,-90.947C-1036.02,-99.967 -1021.71,-105.625 -1008.03,-105.625C-996.263,-105.625 -986.354,-101.717 -979.357,-94.254L-974.979,-89.598L-970.021,-93.643C-960.584,-101.367 -948.691,-105.625 -936.543,-105.625L-71.485,-105.625C-59.059,-105.625 -47.488,-101.518 -38.002,-93.666L-33.056,-89.592L-28.665,-94.266C-21.651,-101.723 -11.754,-105.625 0,-105.625" style="fill:white;fill-rule:nonzero;"/>
                        </g>
                        <g transform="matrix(0.925859,0,0,0.957747,-4310.97,2332.95)">
                            <g transform="matrix(1.03444,0,0,1,-316.379,0)">
                                <g transform="matrix(82.6593,0,0,82.6593,9553.88,2763.79)">
                                </g>
                                <text x="9185.96px" y="2763.79px" style="font-family:'Raleway-ExtraBold', 'Raleway', sans-serif;font-weight:800;font-size:82.659px;fill:rgb(1,0,1);">K<tspan x="9243.32px 9269.36px 9319.29px 9377.4px 9440.39px 9491.14px " y="2763.79px 2763.79px 2763.79px 2763.79px 2763.79px 2763.79px ">ITCHEN</tspan></text>
                            </g>
                        </g>
                    </g>
                    <g>
                        <g>
                            <g transform="matrix(7.69597,0,0,7.69597,4805.79,4018.65)">
                                <path d="M0,71.646C-1.666,70.492 -3.329,68.852 -4.424,67.149C-6.687,63.625 -6.014,59.126 -5.335,55.402L-5.29,55.25C-5.29,55.25 -6.406,55.691 -7.336,57.134C-12.878,65.727 -7.444,66.792 -8.673,69.705C-8.78,69.962 -9.112,70.499 -9.383,70.563C-9.833,70.668 -10.985,70.445 -11.417,70.292C-38.259,60.664 -49.295,27.523 -55.612,-6.828C-55.934,-8.579 -55.934,-9.267 -56.435,-9.514L-56.873,-9.514C-57.373,-9.267 -57.373,-8.579 -57.695,-6.828C-61.614,14.497 -67.277,35.289 -77.488,50.345C-74.834,50.806 -74.14,51.014 -71.579,52.187C-67.374,44.71 -61.987,33.011 -56.652,15.871C-48.378,42.462 -39.681,56.407 -36.083,60.865C-24.129,75.682 -12.537,78.794 -7.808,80.455C-5.802,81.16 -3.688,80.916 2.086,74.938C3.645,73.322 1.521,72.704 0,71.646" style="fill:rgb(1,0,1);fill-rule:nonzero;"/>
                            </g>
                            <g transform="matrix(7.69597,0,0,7.69597,4139.05,4559.19)">
                                <path d="M-0.751,-4.238C-2.734,-4.978 -4.284,-5.947 -4.285,-5.946C-7.505,-3.674 -11.418,-1.322 -15.253,0.055C-15.685,0.209 -16.837,0.432 -17.288,0.326C-17.56,0.262 -17.891,-0.274 -17.997,-0.532C-19.226,-3.444 -13.793,-4.509 -19.334,-13.102C-20.265,-14.545 -21.381,-14.987 -21.381,-14.987L-21.337,-14.835C-20.657,-11.11 -19.984,-6.611 -22.246,-3.087C-23.342,-1.384 -25.004,0.255 -26.67,1.41C-28.192,2.468 -30.316,3.086 -28.756,4.702C-22.982,10.68 -20.869,10.923 -18.863,10.218C-14.854,8.811 -5.908,6.351 4.007,-3.393C4.232,-3.615 0.983,-3.631 -0.751,-4.238" style="fill:rgb(1,0,1);fill-rule:nonzero;"/>
                            </g>
                        </g>
                        <path d="M4095.31,4454.47C4095.35,4454.4 4095.37,4454.33 4095.39,4454.26C4095.5,4453.78 4095.26,4453.3 4094.83,4453.09L4094.21,4452.76C4093.51,4452.4 4092.97,4452.42 4092.59,4453.15C4092.39,4453.55 4092.39,4453.55 4092.1,4454.16C4091.73,4454.82 4091.19,4456.04 4090.84,4457.56C4089.97,4460.6 4090.13,4465.71 4093.19,4470.86C4096,4475.83 4100.98,4480.71 4107.39,4485.16C4107.39,4485.16 4107.39,4485.16 4107.39,4485.17C4113.7,4489.49 4121.63,4493.86 4130.87,4496.12C4139.95,4498.68 4149.93,4500.64 4160.64,4501.76C4160.64,4501.76 4160.64,4501.76 4160.65,4501.76C4171.32,4502.85 4182.65,4503.2 4194.33,4502.9C4194.33,4502.9 4194.33,4502.9 4194.33,4502.9C4200.15,4502.73 4206.05,4502.46 4212.04,4502.06C4218.02,4501.69 4224.15,4501.14 4230.39,4500.02C4234.41,4499.32 4238.41,4498.51 4242.39,4497.61C4227.56,4503.98 4213.19,4509.35 4199.01,4512.34C4196.52,4512.81 4194.31,4513.34 4191.47,4513.7L4187.78,4514.25L4183.92,4514.61C4178.76,4515.11 4173.69,4515.29 4168.72,4515.4C4158.8,4515.62 4149.25,4514.97 4140.32,4513.33C4140.32,4513.33 4140.32,4513.33 4140.32,4513.33C4122.54,4510.09 4107.36,4502.58 4096.25,4492.96C4094.91,4491.76 4093.59,4490.56 4092.29,4489.39C4090.98,4487.98 4089.7,4486.63 4088.44,4485.29C4088.44,4485.29 4088.44,4485.29 4088.44,4485.29C4086.26,4482.98 4084.14,4480.1 4082.29,4477.55C4078.64,4472.33 4076.08,4467.03 4074.72,4461.98C4074.72,4461.98 4074.72,4461.97 4074.72,4461.97C4073.43,4457.36 4073.31,4453.06 4073.87,4449.3C4074.9,4446.25 4076.42,4443.38 4078.47,4440.86C4078.48,4440.85 4078.49,4440.83 4078.51,4440.82C4079.69,4439.2 4081.01,4437.95 4082.41,4436.53C4082.41,4436.53 4084.83,4434.46 4084.83,4434.46C4084.85,4434.44 4084.87,4434.42 4084.89,4434.4C4085.46,4433.83 4086.41,4433.28 4087.19,4432.73C4090.63,4430.45 4093.87,4427.92 4097.38,4425.91C4126.01,4409.93 4157.18,4405.61 4183.67,4406.15C4210.73,4407.01 4233.67,4412.95 4251.38,4420.75C4269.01,4428.6 4281.19,4438.1 4288.77,4445.11C4288.78,4445.12 4288.79,4445.13 4288.8,4445.14C4292.72,4448.55 4295.32,4451.62 4297.25,4453.49C4299.14,4455.39 4300.12,4456.4 4300.12,4456.4C4300.51,4456.8 4301.16,4456.82 4301.58,4456.43C4301.99,4456.04 4302.02,4455.39 4301.63,4454.97C4301.63,4454.97 4300.68,4453.93 4298.85,4451.93C4298.84,4451.92 4298.83,4451.91 4298.82,4451.91C4296.92,4449.98 4294.4,4446.81 4290.54,4443.22C4283.01,4435.88 4270.95,4425.69 4252.99,4417.23C4252.99,4417.23 4252.99,4417.23 4252.99,4417.23C4235.18,4408.85 4211.4,4402.17 4184.02,4400.66C4184.01,4400.66 4184,4400.66 4183.99,4400.66C4177.05,4400.44 4169.87,4400.07 4162.55,4400.79C4158.89,4401.12 4155.13,4401.08 4151.39,4401.71C4147.68,4402.26 4143.91,4402.86 4140.08,4403.45C4140.07,4403.46 4140.05,4403.46 4140.03,4403.46C4124.84,4406.55 4108.86,4411.06 4093.79,4419.61C4090.04,4421.69 4086.52,4424.34 4082.82,4426.72C4082.8,4426.73 4082.79,4426.74 4082.77,4426.75C4081.83,4427.44 4080.93,4427.91 4079.94,4428.76C4079.95,4428.76 4077.47,4430.86 4077.47,4430.86C4077.46,4430.87 4077.44,4430.89 4077.42,4430.9C4075.78,4432.5 4073.94,4434.24 4072.52,4436.11C4069.5,4439.84 4067.05,4444.25 4065.73,4449.12C4064.4,4453.97 4064.26,4459.15 4065.12,4464.1C4066.8,4473.96 4071.85,4482.75 4077.89,4490.44C4077.89,4490.45 4077.9,4490.45 4077.9,4490.45C4078.2,4490.83 4078.54,4491.17 4078.85,4491.55C4079.11,4491.93 4079.34,4492.28 4079.62,4492.65C4079.62,4492.65 4079.62,4492.65 4079.62,4492.66C4080.73,4494.14 4081.87,4495.65 4083.01,4497.18C4083.03,4497.2 4083.04,4497.22 4083.06,4497.24C4084.42,4498.81 4085.82,4500.4 4087.25,4502.02C4087.26,4502.03 4087.26,4502.03 4087.27,4502.04C4093.13,4508.32 4100.11,4514.23 4108.38,4519.24C4108.38,4519.24 4108.38,4519.24 4108.38,4519.24C4116.65,4524.24 4126.09,4528.16 4136.22,4530.95C4136.22,4530.95 4136.22,4530.95 4136.22,4530.95C4146.32,4533.74 4157.09,4535.43 4168.22,4536.16C4168.22,4536.16 4168.22,4536.16 4168.22,4536.16C4173.78,4536.53 4179.44,4536.57 4185.15,4536.4C4185.15,4536.4 4189.42,4536.27 4189.42,4536.27C4189.44,4536.27 4189.45,4536.27 4189.47,4536.27L4193.96,4535.91C4196.6,4535.76 4199.88,4535.28 4202.92,4534.89C4202.93,4534.89 4202.93,4534.88 4202.94,4534.88C4214.82,4533.11 4226.69,4530.12 4238.35,4526.31C4250.01,4522.55 4261.38,4517.8 4272.75,4513.15C4272.75,4513.15 4272.75,4513.15 4272.75,4513.15C4278.32,4510.87 4301.16,4501.71 4307.01,4499.41C4318.73,4494.87 4330.5,4490.04 4342.37,4485.19C4354.24,4480.35 4366.2,4475.47 4378.19,4470.55C4390.23,4465.83 4402.3,4461.09 4414.38,4456.32C4414.38,4456.32 4414.39,4456.32 4414.39,4456.32C4426.46,4451.36 4438.54,4446.8 4450.56,4442.28C4450.56,4442.28 4450.56,4442.28 4450.56,4442.28C4462.62,4437.74 4540.7,4408.98 4552.44,4404.58C4552.44,4404.58 4552.44,4404.58 4552.44,4404.58C4561.94,4401 4582.13,4393.93 4582.93,4393.72C4587.68,4392.58 4593.03,4391.31 4598.85,4389.92C4604.66,4388.55 4610.97,4387.19 4617.63,4385.78C4624.27,4384.4 4631.29,4383.18 4638.55,4381.91C4645.74,4380.69 4653.31,4379.58 4660.78,4378.84C4660.78,4378.84 4660.78,4378.84 4660.78,4378.84C4668.44,4378.05 4676.11,4377.86 4683.9,4378.29C4683.9,4378.29 4683.9,4378.29 4683.9,4378.29C4699.48,4379.12 4715.04,4382.15 4729.51,4385.72C4736.75,4387.53 4743.71,4389.48 4750.34,4391.36C4753.65,4392.32 4756.87,4393.27 4760.01,4394.14C4760.01,4394.14 4760.01,4394.15 4760.02,4394.15C4763.32,4395.04 4766.32,4395.77 4769.35,4396.45C4781.34,4399.23 4791.69,4400.15 4798.89,4399.84C4802.5,4399.73 4803.84,4399.41 4805.75,4399.16C4805.75,4399.16 4805.76,4399.16 4805.76,4399.16C4807.71,4398.87 4811,4397.63 4811,4397.63C4812.55,4396.91 4813.26,4396.64 4813.2,4396.06C4813.14,4395.5 4812.25,4395.58 4810.64,4395.61C4810.64,4395.61 4809.46,4395.6 4806.93,4395.62C4805.08,4395.64 4802.38,4395.8 4798.94,4395.61C4798.93,4395.61 4798.93,4395.61 4798.93,4395.61C4795.5,4395.43 4791.33,4395 4786.63,4394.16C4781.91,4393.31 4776.65,4391.98 4770.98,4390.25C4768.16,4389.39 4765.12,4388.43 4762.22,4387.4C4759.16,4386.26 4756,4385.09 4752.75,4383.9C4752.75,4383.9 4752.75,4383.9 4752.74,4383.89C4746.18,4381.54 4739.24,4379.2 4731.96,4376.92C4731.95,4376.91 4731.95,4376.91 4731.95,4376.91C4717.37,4372.41 4701.42,4368.36 4684.9,4366.42C4680.44,4365.89 4675.91,4365.55 4671.4,4365.37C4686.02,4361.73 4700.09,4358.66 4713.52,4356.64C4713.52,4356.64 4713.52,4356.64 4713.52,4356.64C4732.38,4353.65 4749.9,4351.87 4765.3,4352.51C4765.31,4352.51 4765.31,4352.51 4765.32,4352.51C4769.16,4352.61 4772.87,4352.74 4776.41,4353.19C4776.42,4353.19 4776.42,4353.19 4776.43,4353.19C4778.16,4353.39 4780.01,4353.45 4781.56,4353.77C4781.56,4353.77 4781.56,4353.77 4781.57,4353.77C4783.04,4354.05 4784.71,4354.51 4786.24,4354.96C4792.55,4356.86 4798.24,4359.21 4803.13,4361.73C4803.14,4361.73 4803.14,4361.73 4803.15,4361.73C4812.9,4366.6 4819.45,4372.48 4822.34,4377.57C4822.34,4377.57 4822.34,4377.57 4822.34,4377.58C4823.75,4380.01 4824.42,4382.13 4824.67,4383.58C4824.67,4383.58 4824.67,4383.59 4824.67,4383.59C4824.95,4385.05 4824.99,4385.82 4824.99,4385.82C4825.01,4386.37 4825.47,4386.8 4826.02,4386.81C4826.57,4386.81 4827.03,4386.39 4827.07,4385.84C4827.07,4385.84 4827.13,4384.99 4827.05,4383.33L4827.05,4383.32C4826.97,4381.65 4826.55,4379.15 4825.26,4376.1C4822.76,4370.16 4816.3,4362.77 4806.29,4356.28C4806.29,4356.28 4806.29,4356.28 4806.29,4356.28C4801.33,4353.08 4795.58,4349.98 4788.95,4347.26C4788.95,4347.26 4788.95,4347.26 4788.95,4347.26C4787.24,4346.57 4785.59,4345.95 4783.59,4345.34C4783.59,4345.34 4783.58,4345.34 4783.58,4345.33C4781.69,4344.78 4779.93,4344.43 4778.04,4343.96C4774.3,4342.98 4770.38,4342.28 4766.32,4341.64C4766.32,4341.64 4766.32,4341.64 4766.32,4341.64C4750.1,4339.21 4731.62,4338.69 4711.68,4340.01C4711.67,4340.01 4711.67,4340.01 4711.67,4340.01C4691.77,4341.4 4670.31,4344.1 4647.98,4348.78C4625.79,4353.35 4601.94,4359.54 4578.9,4367.26C4555.55,4374.61 4531.49,4382.51 4507.12,4390.88C4494.95,4395 4452.32,4410.35 4440.04,4414.79C4440.04,4414.79 4440.03,4414.79 4440.03,4414.79C4427.75,4419.32 4379.16,4438.54 4367.08,4443.45C4367.08,4443.45 4367.07,4443.46 4367.07,4443.46C4360.5,4446.23 4336.83,4455.6 4331.34,4457.56C4331.34,4457.56 4331.34,4457.56 4331.33,4457.56C4320.57,4461.53 4309.37,4465.45 4298.01,4469.41C4298,4469.41 4298,4469.41 4298,4469.41C4286.67,4473.44 4275.08,4477.34 4263.46,4481C4251.86,4484.61 4240.16,4487.99 4228.58,4490.35C4217.17,4492.6 4205.24,4493.45 4193.95,4494.3C4182.62,4495 4171.63,4495.11 4161.27,4494.42C4150.94,4493.72 4141.18,4492.2 4132.42,4490.24C4132.41,4490.24 4132.4,4490.23 4132.39,4490.23C4123.55,4488.51 4116.25,4484.9 4110.02,4481.15C4103.96,4477.35 4099.18,4473.12 4096.48,4468.84C4096.47,4468.84 4096.47,4468.83 4096.46,4468.82C4093.76,4464.77 4093.4,4460.77 4093.98,4458.3C4093.98,4458.28 4093.99,4458.27 4093.99,4458.25C4094.22,4457 4094.56,4456.12 4094.86,4455.49C4094.86,4455.48 4094.86,4455.48 4094.86,4455.47C4095.13,4454.87 4095.31,4454.47 4095.31,4454.47L4095.31,4454.47Z" style="fill:rgb(152,201,60);"/>
                    </g>
                </g>
            </g>
        </g>
    </g>
</svg>
