<?xml version="1.0" encoding="UTF-8" standalone="no"?>
<!DOCTYPE svg PUBLIC "-//W3C//DTD SVG 1.1//EN" "http://www.w3.org/Graphics/SVG/1.1/DTD/svg11.dtd">
<svg width="100%" height="100%" viewBox="0 0 512 512" version="1.1" xmlns="http://www.w3.org/2000/svg" xmlns:xlink="http://www.w3.org/1999/xlink" xml:space="preserve" xmlns:serif="http://www.serif.com/" style="fill-rule:evenodd;clip-rule:evenodd;stroke-linejoin:round;stroke-miterlimit:2;">
    <g transform="matrix(1,0,0,1,-1472,-132)">
        <g transform="matrix(1,0,0,0.615385,1280,0)">
            <g id="_512" serif:id="512" transform="matrix(1.26763,0,0,2.0599,88.611,-173.963)">
                <path d="M485.465,289.56C485.465,233.83 440.219,188.584 384.489,188.584L182.537,188.584C126.807,188.584 81.561,233.83 81.561,289.56L81.561,491.512C81.561,547.242 126.807,592.488 182.537,592.488L384.489,592.488C440.219,592.488 485.465,547.242 485.465,491.512L485.465,289.56Z" style="fill:none;"/>
                <clipPath id="_clip1">
                    <path d="M485.465,289.56C485.465,233.83 440.219,188.584 384.489,188.584L182.537,188.584C126.807,188.584 81.561,233.83 81.561,289.56L81.561,491.512C81.561,547.242 126.807,592.488 182.537,592.488L384.489,592.488C440.219,592.488 485.465,547.242 485.465,491.512L485.465,289.56Z"/>
                </clipPath>
                <g clip-path="url(#_clip1)">
                    <g transform="matrix(0.664216,0,0,0.664216,883.684,319.496)">
                        <g transform="matrix(0.593839,0,0,0.593839,-1207.62,-197.093)">
                            <rect x="0" y="0" width="1024" height="1024" style="fill:url(#_Linear2);"/>
                        </g>
                        <g transform="matrix(0.942623,0,0,0.942623,-22.296,-220.497)">
                            <g transform="matrix(0.512343,0,0,0.512343,-1059.65,33.7174)">
                                <rect x="-157.387" y="604.961" width="65.711" height="65.711" style="fill:rgb(242,235,250);"/>
                            </g>
                            <g transform="matrix(0.512343,0,0,0.512343,-1012.52,33.7174)">
                                <rect x="-157.387" y="604.961" width="65.711" height="65.711" style="fill:rgb(242,235,250);"/>
                            </g>
                            <g transform="matrix(0.512343,0,0,0.512343,-965.388,33.7174)">
                                <rect x="-157.387" y="604.961" width="65.711" height="65.711" style="fill:rgb(242,235,250);"/>
                            </g>
                            <g transform="matrix(0.512343,0,0,0.512343,-1012.52,-13.4157)">
                                <rect x="-157.387" y="604.961" width="65.711" height="65.711" style="fill:rgb(242,235,250);"/>
                            </g>
                            <g transform="matrix(0.512343,0,0,0.512343,-965.388,-13.4157)">
                                <rect x="-157.387" y="604.961" width="65.711" height="65.711" style="fill:rgb(242,235,250);"/>
                            </g>
                            <g transform="matrix(0.512343,0,0,0.512343,-918.255,-13.4157)">
                                <rect x="-157.387" y="604.961" width="65.711" height="65.711" style="fill:rgb(242,235,250);"/>
                            </g>
                            <g transform="matrix(0.512343,0,0,0.512343,-965.388,-60.5487)">
                                <rect x="-157.387" y="604.961" width="65.711" height="65.711" style="fill:rgb(242,235,250);"/>
                            </g>
                            <g transform="matrix(0.512343,0,0,0.512343,-918.255,-60.5487)">
                                <rect x="-157.387" y="604.961" width="65.711" height="65.711" style="fill:rgb(242,235,250);"/>
                            </g>
                            <g transform="matrix(0.512343,0,0,0.512343,-871.122,-60.5487)">
                                <rect x="-157.387" y="604.961" width="65.711" height="65.711" style="fill:rgb(242,235,250);"/>
                            </g>
                            <g transform="matrix(0.512343,0,0,0.512343,-918.255,-107.682)">
                                <rect x="-157.387" y="604.961" width="65.711" height="65.711" style="fill:rgb(242,235,250);"/>
                            </g>
                            <g transform="matrix(0.512343,0,0,0.512343,-871.122,-154.815)">
                                <rect x="-157.387" y="604.961" width="65.711" height="65.711" style="fill:rgb(242,235,250);"/>
                            </g>
                            <g transform="matrix(0.512343,0,0,0.512343,-823.989,-154.815)">
                                <rect x="-157.387" y="604.961" width="65.711" height="65.711" style="fill:rgb(242,235,250);"/>
                            </g>
                            <g transform="matrix(0.512343,0,0,0.512343,-823.989,-201.948)">
                                <rect x="-157.387" y="604.961" width="65.711" height="65.711" style="fill:rgb(242,235,250);"/>
                            </g>
                            <g transform="matrix(0.512343,0,0,0.512343,-776.855,-201.948)">
                                <rect x="-157.387" y="604.961" width="65.711" height="65.711" style="fill:rgb(242,235,250);"/>
                            </g>
                            <g transform="matrix(-0.512343,0,0,0.512343,-951.595,-107.682)">
                                <rect x="-157.387" y="604.961" width="65.711" height="65.711" style="fill:rgb(242,235,250);"/>
                            </g>
                            <g transform="matrix(-0.512343,0,0,0.512343,-998.728,-107.682)">
                                <rect x="-157.387" y="604.961" width="65.711" height="65.711" style="fill:rgb(242,235,250);"/>
                            </g>
                            <g transform="matrix(-0.512343,0,0,0.512343,-1045.86,-154.815)">
                                <rect x="-157.387" y="604.961" width="65.711" height="65.711" style="fill:rgb(242,235,250);"/>
                            </g>
                            <g transform="matrix(-0.512343,0,0,0.512343,-1045.86,-201.948)">
                                <rect x="-157.387" y="604.961" width="65.711" height="65.711" style="fill:rgb(242,235,250);"/>
                            </g>
                            <g transform="matrix(-0.512343,0,0,0.512343,-1092.99,-201.948)">
                                <rect x="-157.387" y="604.961" width="65.711" height="65.711" style="fill:rgb(242,235,250);"/>
                            </g>
                            <g transform="matrix(-0.512343,1.5853e-16,-1.5853e-16,-0.512343,-810.196,687.279)">
                                <rect x="-157.387" y="604.961" width="65.711" height="65.711" style="fill:rgb(242,235,250);"/>
                            </g>
                            <g transform="matrix(-0.512343,1.5853e-16,-1.5853e-16,-0.512343,-857.329,687.279)">
                                <rect x="-157.387" y="604.961" width="65.711" height="65.711" style="fill:rgb(242,235,250);"/>
                            </g>
                            <g transform="matrix(-0.512343,1.5853e-16,-1.5853e-16,-0.512343,-904.462,687.279)">
                                <rect x="-157.387" y="604.961" width="65.711" height="65.711" style="fill:rgb(242,235,250);"/>
                            </g>
                            <g transform="matrix(-0.512343,1.5853e-16,-1.5853e-16,-0.512343,-857.329,640.145)">
                                <rect x="-157.387" y="604.961" width="65.711" height="65.711" style="fill:rgb(242,235,250);"/>
                            </g>
                            <g transform="matrix(-0.512343,1.5853e-16,-1.5853e-16,-0.512343,-904.462,640.145)">
                                <rect x="-157.387" y="604.961" width="65.711" height="65.711" style="fill:rgb(242,235,250);"/>
                            </g>
                            <g transform="matrix(-0.512343,1.5853e-16,-1.5853e-16,-0.512343,-951.595,640.145)">
                                <rect x="-157.387" y="604.961" width="65.711" height="65.711" style="fill:rgb(242,235,250);"/>
                            </g>
                            <g transform="matrix(-0.512343,1.5853e-16,-1.5853e-16,-0.512343,-904.462,593.012)">
                                <rect x="-157.387" y="604.961" width="65.711" height="65.711" style="fill:rgb(242,235,250);"/>
                            </g>
                            <g transform="matrix(-0.512343,1.5853e-16,-1.5853e-16,-0.512343,-951.595,593.012)">
                                <rect x="-157.387" y="604.961" width="65.711" height="65.711" style="fill:rgb(242,235,250);"/>
                            </g>
                        </g>
                        <g transform="matrix(2.45577,-6.18738e-17,-2.47495e-16,2.44355,-981.729,254.684)">
                            <path d="M31.872,31.886L13.269,31.886L-9.257,9.4L-14.53,14.603L-14.503,31.886L-29.054,31.886L-29.054,19.671L-58.774,19.671L-71.008,31.886L-91.985,31.886L-28.328,-31.871L-14.503,-31.871L-14.481,-4.09L13.269,-31.871L31.872,-31.871L31.872,-31.871L47.841,-31.871L47.87,-5.669L78.129,-5.669L78.151,-31.871L91.834,-31.871L155.633,31.886L134.657,31.886L122.423,19.671L92.703,19.671L92.703,31.886L78.151,31.886L78.129,9.723L47.87,9.723L47.841,31.886L31.872,31.886L31.872,31.886ZM31.872,-31.871L0,0.015L31.872,31.886L31.872,-31.871ZM108.063,5.334L92.747,-9.959L92.747,5.292L108.063,5.334ZM-44.398,5.317L-29.098,5.317L-29.098,-9.959L-44.398,5.317Z" style="fill:rgb(242,235,250);"/>
                        </g>
                    </g>
                </g>
            </g>
        </g>
    </g>
    <defs>
        <linearGradient id="_Linear2" x1="0" y1="0" x2="1" y2="0" gradientUnits="userSpaceOnUse" gradientTransform="matrix(6.27019e-14,1024,-1024,6.27019e-14,512,0)"><stop offset="0" style="stop-color:rgb(255,0,66);stop-opacity:1"/><stop offset="1" style="stop-color:rgb(133,39,255);stop-opacity:1"/></linearGradient>
    </defs>
</svg>
